# xmcd CD database file
#
# Track frame offsets:
#	150
#	14865
#	27684
#	38955
#	51417
#	70310
#	80858
#	99077
#	109018
#	143933
#	169954
#	188925
#	207636
#
# Disc length: 3123 seconds
#
# Revision: 0
# Processed by: cddbd v1.5PL3 Copyright (c) Steve Scherf et al.
# Submitted via: CDex 1.50beta8
#
DISCID=cb0c310d
DTITLE=オナニーマシーン - 彼女ボシュー
DYEAR=2002
DGENRE=
TTITLE0=ドーテー島
TTITLE1=ウララ　ウララ
TTITLE2=チンチンマンマン
TTITLE3=オッパイ
TTITLE4=オキナワ
TTITLE5=スイスイスー
TTITLE6=僕だけの七日間戦ズリ
TTITLE7=ウンコ
TTITLE8=あの人
TTITLE9=女友達
TTITLE10=彼女ボシュー
TTITLE11=あのコがチンポを食べてる
TTITLE12=恋のAbc
EXTD=YEAR: 2002
EXTT0=
EXTT1=
EXTT2=
EXTT3=
EXTT4=
EXTT5=
EXTT6=
EXTT7=
EXTT8=
EXTT9=
EXTT10=
EXTT11=
EXTT12=
PLAYORDER=
